# xmcd
#
# Track frame offsets:
#	150
#	16506
#	34210
#	51367
#	68793
#	86752
#	99850
#	119045
#	131996
#	148716
#	166620
#	182760
#
# Disc length: 2699 seconds
#
# Revision: 0
# Processed by: cddbd v1.5.2PL0 Copyright (c) Steve Scherf et al.
# Submitted via: EasyCDDAExtractor 4.6.9.1
#
DISCID=a20a890c
DTITLE=Kenny Rogers - 25 Greatest Hits - Disc 1
DYEAR=1987
DGENRE=Country
TTITLE0=Lucille
TTITLE1=Lady
TTITLE2=Love Lifted Me
TTITLE3=We've Got Tonight (w-Sheena Easton)
TTITLE4=Scarlet Fever
TTITLE5=Love Or Something Like It
TTITLE6=She Believes In Me
TTITLE7=Ruby Don't Take Your Love To Town
TTITLE8=Don't Fall In Love With A Dreamer (w-Kim Carnes)
TTITLE9=You Were A Good Friend
TTITLE10=The Gambler
TTITLE11=Through The Years
EXTD=YEAR: 1987 ID3G: 2
EXTT0=
EXTT1=
EXTT2=
EXTT3=
EXTT4=
EXTT5=
EXTT6=
EXTT7=
EXTT8=
EXTT9=
EXTT10=
EXTT11=
PLAYORDER=
